<?xml version="1.0" encoding="UTF-8" standalone="no"?>
<svg width="140px" height="140px" viewBox="0 0 140 140" version="1.1" xmlns="http://www.w3.org/2000/svg" xmlns:xlink="http://www.w3.org/1999/xlink" xmlns:sketch="http://www.bohemiancoding.com/sketch/ns">
    <!-- Generator: Sketch 3.3.2 (12043) - http://www.bohemiancoding.com/sketch -->
    <title>140 x 140 px Default File Image</title>
    <desc>Created with Sketch.</desc>
    <defs></defs>
    <g id="Page-1" stroke="none" stroke-width="1" fill="none" fill-rule="evenodd" sketch:type="MSPage">
        <g id="Artboard-1" sketch:type="MSArtboardGroup" transform="translate(-1823.000000, -1196.000000)">
            <g id="140-x-140-file-avatar" sketch:type="MSLayerGroup" transform="translate(1823.000000, 1196.000000)">
                <rect id="avatar" fill="#CECECE" sketch:type="MSShapeGroup" x="0" y="0" width="140" height="140"></rect>
                <g id="file_icon" transform="translate(42.000000, 41.000000)" fill="#A7A7A7" sketch:type="MSShapeGroup">
                    <path d="M49.5479,16.8291 L49.5339,16.8461 C49.3899,16.8341 49.2049,16.8171 48.9999,16.7981 L48.9999,49.0001 L13.2379,49.0001 L12.7999,53.4681 L52.4679,57.0871 L56.0869,17.4251 L49.5479,16.8291 Z" id="Fill-2521"></path>
                    <path d="M13,9 C15.757,9 18,11.243 18,14 C18,16.757 15.757,19 13,19 C10.243,19 8,16.757 8,14 C8,11.243 10.243,9 13,9 L13,9 Z M16.31,25.234 C16.475,24.953 16.767,24.77 17.091,24.743 C17.417,24.711 17.733,24.849 17.942,25.099 L23.227,31.441 L28.872,19.02 C29.038,18.654 29.407,18.429 29.81,18.435 C30.212,18.446 30.568,18.697 30.714,19.072 L37.684,37 L47,37 L47,0.955 L1.044,1.001 L1.009,37 L9.426,37 L16.31,25.234 Z" id="Fill-2522"></path>
                    <path d="M47,39 L1.007,39 L0.999,47 L47,47 L47,39 Z" id="Fill-2523"></path>
                </g>
            </g>
        </g>
    </g>
</svg>
